<svg xmlns="http://www.w3.org/2000/svg" viewBox="0 0 1644 1010" font-family="'IBM Plex Sans', ui-sans-serif, system-ui, -apple-system, 'Segoe UI', Roboto, Helvetica, Arial, sans-serif">
  <defs>
    <style>
      /* Self-hosted, same origin as the page that embeds this file. The SVG is
         loaded through &lt;object&gt;, which gives it its own document, so it has to
         declare the faces itself rather than inheriting them. */
      @font-face { font-family: 'IBM Plex Sans'; font-style: normal; font-weight: 100 700; font-display: swap; src: url('/fonts/plex-sans-var.woff2') format('woff2'); }
      @font-face { font-family: 'IBM Plex Mono'; font-style: normal; font-weight: 400; font-display: swap; src: url('/fonts/plex-mono-400.woff2') format('woff2'); }
      @font-face { font-family: 'IBM Plex Mono'; font-style: normal; font-weight: 600; font-display: swap; src: url('/fonts/plex-mono-600.woff2') format('woff2'); }
      text { font-family: 'IBM Plex Sans', ui-sans-serif, system-ui, -apple-system, 'Segoe UI', Roboto, Helvetica, Arial, sans-serif; }
      .mono { font-family: 'IBM Plex Mono', ui-monospace, SFMono-Regular, Menlo, Consolas, monospace; }
    </style>

    <linearGradient id="bgGrad" x1="0" y1="0" x2="0" y2="1">
      <stop offset="0" stop-color="#ffffff"/>
      <stop offset="1" stop-color="#f7f6f2"/>
    </linearGradient>
    <linearGradient id="logoGrad" x1="0" y1="0" x2="1" y2="1">
      <stop offset="0" stop-color="#2a2352"/>
      <stop offset="0.5" stop-color="#5a4fd0"/>
      <stop offset="1" stop-color="#a99cff"/>
    </linearGradient>

    <pattern id="grid" width="34" height="34" patternUnits="userSpaceOnUse">
      <path d="M34 0 H0 V34" fill="none" stroke="#efece5" stroke-width="1"/>
    </pattern>

    <filter id="blur" x="-50%" y="-50%" width="200%" height="200%">
      <feGaussianBlur stdDeviation="46"/>
    </filter>
    <filter id="soft" x="-30%" y="-30%" width="160%" height="160%">
      <feDropShadow dx="0" dy="7" stdDeviation="13" flood-color="#2a2734" flood-opacity="0.10"/>
    </filter>
    <filter id="softsm" x="-40%" y="-40%" width="180%" height="180%">
      <feDropShadow dx="0" dy="3" stdDeviation="6" flood-color="#2a2734" flood-opacity="0.08"/>
    </filter>

    <marker id="arrInk" markerWidth="9" markerHeight="9" refX="6.5" refY="3" orient="auto"><path d="M0 0 L6.5 3 L0 6 Z" fill="#57545d"/></marker>
    <marker id="arrGray" markerWidth="8" markerHeight="8" refX="6" refY="3" orient="auto"><path d="M0 0 L6 3 L0 6 Z" fill="#d8d4cc"/></marker>
    <marker id="arrGreen" markerWidth="8" markerHeight="8" refX="6" refY="3" orient="auto"><path d="M0 0 L6 3 L0 6 Z" fill="#3f8a6b"/></marker>
    <marker id="arrViolet" markerWidth="8" markerHeight="8" refX="6" refY="3" orient="auto"><path d="M0 0 L6 3 L0 6 Z" fill="#5a4fd0"/></marker>

    <!-- GlassBox mark: two offset panes — the decision, and the evidence behind it. -->
    <symbol id="logo" viewBox="0 0 122 122">
      <rect x="0" y="0" width="122" height="122" rx="28" fill="url(#logoGrad)"/>
      <rect x="26" y="24" width="42" height="58" rx="12" fill="none" stroke="#ffffff" stroke-width="7" transform="rotate(-10 47 53)"/>
      <rect x="54" y="42" width="42" height="58" rx="12" fill="none" stroke="#ffffff" stroke-width="7" stroke-opacity="0.62" transform="rotate(7 75 71)"/>
    </symbol>

    <!-- micro icon library (24x24 viewBox, stroke inherits currentColor) -->
    <symbol id="ic-people" viewBox="0 0 24 24" fill="none" stroke="currentColor" stroke-width="2" stroke-linecap="round" stroke-linejoin="round"><circle cx="9" cy="8" r="3"/><path d="M3 20c0-3.3 2.7-5 6-5s6 1.7 6 5"/><circle cx="17.5" cy="8" r="2.4"/><path d="M15.5 15c3 0 5 1.7 5 5"/></symbol>
    <symbol id="ic-shield" viewBox="0 0 24 24" fill="none" stroke="currentColor" stroke-width="2" stroke-linecap="round" stroke-linejoin="round"><path d="M12 3l7 3v5c0 5-3.5 7-7 8-3.5-1-7-3-7-8V6z"/><path d="M9 12l2 2 4-4"/></symbol>
    <symbol id="ic-db" viewBox="0 0 24 24" fill="none" stroke="currentColor" stroke-width="2" stroke-linecap="round" stroke-linejoin="round"><ellipse cx="12" cy="6" rx="7" ry="3"/><path d="M5 6v12c0 1.7 3.1 3 7 3s7-1.3 7-3V6"/><path d="M5 12c0 1.7 3.1 3 7 3s7-1.3 7-3"/></symbol>
    <symbol id="ic-cpu" viewBox="0 0 24 24" fill="none" stroke="currentColor" stroke-width="2" stroke-linecap="round" stroke-linejoin="round"><rect x="6" y="6" width="12" height="12" rx="2"/><rect x="10" y="10" width="4" height="4"/><path d="M10 3v3M14 3v3M10 18v3M14 18v3M3 10h3M3 14h3M18 10h3M18 14h3"/></symbol>
    <symbol id="ic-bolt" viewBox="0 0 24 24" fill="none" stroke="currentColor" stroke-width="2" stroke-linecap="round" stroke-linejoin="round"><path d="M13 3 4 14h6l-1 7 9-11h-6z"/></symbol>
    <symbol id="ic-doc" viewBox="0 0 24 24" fill="none" stroke="currentColor" stroke-width="2" stroke-linecap="round" stroke-linejoin="round"><path d="M14 3H7a2 2 0 0 0-2 2v14a2 2 0 0 0 2 2h10a2 2 0 0 0 2-2V8z"/><path d="M14 3v5h5M9 13h6M9 17h4"/></symbol>
    <symbol id="ic-target" viewBox="0 0 24 24" fill="none" stroke="currentColor" stroke-width="2" stroke-linecap="round" stroke-linejoin="round"><circle cx="12" cy="12" r="8"/><circle cx="12" cy="12" r="4.3"/><circle cx="12" cy="12" r="1.3" fill="currentColor" stroke="none"/></symbol>
    <symbol id="ic-layers" viewBox="0 0 24 24" fill="none" stroke="currentColor" stroke-width="2" stroke-linecap="round" stroke-linejoin="round"><path d="M12 3l9 5-9 5-9-5z"/><path d="M3 13l9 5 9-5"/></symbol>
    <symbol id="ic-refresh" viewBox="0 0 24 24" fill="none" stroke="currentColor" stroke-width="2" stroke-linecap="round" stroke-linejoin="round"><path d="M20 12a8 8 0 1 1-2.3-5.7L20 8"/><path d="M20 3v5h-5"/></symbol>
    <symbol id="ic-key" viewBox="0 0 24 24" fill="none" stroke="currentColor" stroke-width="2" stroke-linecap="round" stroke-linejoin="round"><circle cx="8" cy="12" r="4"/><path d="M12 12h9M18 12v4M15 12v3"/></symbol>
    <symbol id="ic-lock" viewBox="0 0 24 24" fill="none" stroke="currentColor" stroke-width="2" stroke-linecap="round" stroke-linejoin="round"><rect x="5" y="10" width="14" height="10" rx="2"/><path d="M8 10V7a4 4 0 0 1 8 0v3"/></symbol>
    <symbol id="ic-link" viewBox="0 0 24 24" fill="none" stroke="currentColor" stroke-width="2" stroke-linecap="round" stroke-linejoin="round"><path d="M10 13a4 4 0 0 0 6 .5l2.5-2.5a4 4 0 0 0-5.7-5.7L11.5 6.5"/><path d="M14 11a4 4 0 0 0-6-.5L5.5 13a4 4 0 0 0 5.7 5.7l1.3-1.3"/></symbol>
    <symbol id="ic-globe" viewBox="0 0 24 24" fill="none" stroke="currentColor" stroke-width="2" stroke-linecap="round" stroke-linejoin="round"><circle cx="12" cy="12" r="8"/><path d="M4 12h16M12 4c3 4 3 12 0 16M12 4c-3 4-3 12 0 16"/></symbol>
    <symbol id="ic-box" viewBox="0 0 24 24" fill="none" stroke="currentColor" stroke-width="2" stroke-linecap="round" stroke-linejoin="round"><path d="M21 8 12 3 3 8v8l9 5 9-5z"/><path d="M3 8l9 5 9-5M12 13v8"/></symbol>
    <symbol id="ic-ban" viewBox="0 0 24 24" fill="none" stroke="currentColor" stroke-width="2" stroke-linecap="round" stroke-linejoin="round"><circle cx="12" cy="12" r="8"/><path d="M6.5 6.5l11 11"/></symbol>
    <symbol id="ic-clock" viewBox="0 0 24 24" fill="none" stroke="currentColor" stroke-width="2" stroke-linecap="round" stroke-linejoin="round"><circle cx="12" cy="12" r="8"/><path d="M12 7v5l3 2"/></symbol>
    <symbol id="ic-flow" viewBox="0 0 24 24" fill="none" stroke="currentColor" stroke-width="2" stroke-linecap="round" stroke-linejoin="round"><circle cx="5" cy="6" r="2.4"/><circle cx="19" cy="12" r="2.4"/><circle cx="5" cy="18" r="2.4"/><path d="M7.4 6h4.6a4 4 0 0 1 4 4v.4M7.4 18h4.6a4 4 0 0 0 4-4v-.4"/></symbol>
    <symbol id="ic-list" viewBox="0 0 24 24" fill="none" stroke="currentColor" stroke-width="2" stroke-linecap="round" stroke-linejoin="round"><path d="M4 6h16M4 12h11M4 18h7"/></symbol>
    <symbol id="ic-scan" viewBox="0 0 24 24" fill="none" stroke="currentColor" stroke-width="2" stroke-linecap="round" stroke-linejoin="round"><path d="M4 8V5a1 1 0 0 1 1-1h3M16 4h3a1 1 0 0 1 1 1v3M20 16v3a1 1 0 0 1-1 1h-3M8 20H5a1 1 0 0 1-1-1v-3"/><path d="M4 12h16"/></symbol>
  </defs>

  <!-- ===================== BACKGROUND ===================== -->
  <rect width="1644" height="1010" fill="url(#bgGrad)"/>
  <rect width="1644" height="1010" fill="url(#grid)"/>
  <ellipse cx="330" cy="120" rx="290" ry="150" fill="#5a4fd0" opacity="0.055" filter="url(#blur)"/>
  <ellipse cx="1330" cy="820" rx="300" ry="160" fill="#216a53" opacity="0.05" filter="url(#blur)"/>

  <!-- ===================== HEADER ===================== -->
  <use href="#logo" x="46" y="38" width="52" height="52"/>
  <text x="112" y="64" font-size="27" font-weight="700" fill="#29282e" letter-spacing="-0.6">GlassBox</text>
  <text x="112" y="86" font-size="13" fill="#5f5c66">DataHub-native execution provenance and control for AI agents</text>

  <!-- DataHub partner lockup, far right of header -->
  <g transform="translate(1398 40)">
    <rect x="0" y="0" width="200" height="50" rx="12" fill="#ffffff" stroke="#e5e2dc" filter="url(#softsm)"/>
    <g transform="translate(14 13)" color="#216a53"><use href="#ic-db" width="24" height="24"/></g>
    <text x="48" y="22" font-size="14" font-weight="700" fill="#29282e">DataHub</text>
    <text x="48" y="37" font-size="10" fill="#5f5c66">Core 1.6.0 · governed graph</text>
  </g>

  <text x="46" y="126" font-size="12" fill="#7c7882">Recorded at the boundary. Signed by policy. Invalidated by evidence.</text>

  <!-- numbered flow band -->
  <g transform="translate(700 116)" font-size="11" fill="#5f5c66">
    <text x="0" y="0" font-size="10" font-weight="700" fill="#7c7882" letter-spacing="1.2">HOW GLASSBOX WORKS</text>
    <g transform="translate(0 14)">
      <circle cx="6" cy="6" r="8" fill="#29282e"/><text x="6" y="9.5" font-size="9" font-weight="700" fill="#ffffff" text-anchor="middle">1</text>
      <text x="20" y="10" font-weight="500">Capture</text>
      <circle cx="96" cy="6" r="8" fill="#29282e"/><text x="96" y="9.5" font-size="9" font-weight="700" fill="#ffffff" text-anchor="middle">2</text>
      <text x="110" y="10" font-weight="500">Sign</text>
      <circle cx="168" cy="6" r="8" fill="#29282e"/><text x="168" y="9.5" font-size="9" font-weight="700" fill="#ffffff" text-anchor="middle">3</text>
      <text x="182" y="10" font-weight="500">Project</text>
      <circle cx="258" cy="6" r="8" fill="#29282e"/><text x="258" y="9.5" font-size="9" font-weight="700" fill="#ffffff" text-anchor="middle">4</text>
      <text x="272" y="10" font-weight="500">Assess</text>
      <circle cx="352" cy="6" r="8" fill="#29282e"/><text x="352" y="9.5" font-size="9" font-weight="700" fill="#ffffff" text-anchor="middle">5</text>
      <text x="366" y="10" font-weight="500">Recover</text>
    </g>
  </g>

  <!-- ===================== LEFT RAIL ===================== -->
  <!-- Card A: Agents (violet) -->
  <g transform="translate(44 172)">
    <rect x="0" y="0" width="226" height="126" rx="13" fill="#ffffff" stroke="#e2ddf5" filter="url(#softsm)"/>
    <g transform="translate(16 15)" color="#5a4fd0"><use href="#ic-people" width="17" height="17"/></g>
    <text x="42" y="28" font-size="10" font-weight="700" fill="#5a4fd0" letter-spacing="1.1">AGENTS</text>
    <text x="16" y="53" font-size="11.5" fill="#4a4752">Instrumented runs emit OTLP</text>
    <text x="16" y="69" font-size="11.5" fill="#4a4752">spans as they read and write.</text>
    <rect x="16" y="80" width="194" height="20" rx="6" fill="#f8f7f4" stroke="#e5e2dc"/>
    <text class="mono" x="26" y="94" font-size="9.5" fill="#4a4752">glassbox.runtime · nested runs</text>
    <rect x="16" y="104" width="194" height="20" rx="6" fill="#f8f7f4" stroke="#e5e2dc"/>
    <text class="mono" x="26" y="118" font-size="9.5" fill="#4a4752">LangGraph · Google ADK · MCP</text>
  </g>

  <!-- Card B: Operators (green) -->
  <g transform="translate(44 314)">
    <rect x="0" y="0" width="226" height="112" rx="13" fill="#ffffff" stroke="#d8e9e1" filter="url(#softsm)"/>
    <g transform="translate(16 15)" color="#216a53"><use href="#ic-shield" width="17" height="17"/></g>
    <text x="42" y="28" font-size="10" font-weight="700" fill="#216a53" letter-spacing="1.1">OPERATORS</text>
    <text x="16" y="53" font-size="11.5" fill="#4a4752">Review decisions and</text>
    <text x="16" y="69" font-size="11.5" fill="#4a4752">authorize recovery explicitly.</text>
    <rect x="16" y="80" width="194" height="20" rx="6" fill="#f8f7f4" stroke="#e5e2dc"/>
    <text class="mono" x="26" y="94" font-size="9.5" fill="#4a4752">glassbox-dbom verify-policy</text>
  </g>

  <!-- Card C: Platform (slate) -->
  <g transform="translate(44 442)">
    <rect x="0" y="0" width="226" height="134" rx="13" fill="#ffffff" stroke="#e5e2dc" filter="url(#softsm)"/>
    <g transform="translate(16 15)" color="#57545d"><use href="#ic-cpu" width="17" height="17"/></g>
    <text x="42" y="28" font-size="10" font-weight="700" fill="#57545d" letter-spacing="1.1">PLATFORM</text>
    <text x="16" y="53" font-size="11.5" fill="#4a4752">Run the control plane and</text>
    <text x="16" y="69" font-size="11.5" fill="#4a4752">provision the estate as code.</text>
    <rect x="16" y="80" width="194" height="20" rx="6" fill="#f8f7f4" stroke="#e5e2dc"/>
    <text class="mono" x="26" y="94" font-size="9.5" fill="#4a4752">glassbox-otlp-receiver serve</text>
    <rect x="16" y="104" width="194" height="20" rx="6" fill="#f8f7f4" stroke="#e5e2dc"/>
    <text class="mono" x="26" y="118" font-size="9.5" fill="#4a4752">glassbox-datahub-action</text>
  </g>

  <!-- left rail arrows into the evidence window -->
  <path d="M274 235 H 300" stroke="#57545d" stroke-width="1.6" fill="none" marker-end="url(#arrInk)"/>
  <path d="M274 370 H 300" stroke="#57545d" stroke-width="1.6" fill="none" marker-end="url(#arrInk)"/>
  <path d="M274 509 H 300" stroke="#57545d" stroke-width="1.6" fill="none" marker-end="url(#arrInk)"/>

  <!-- ===================== CENTER: EVIDENCE WINDOW ===================== -->
  <g transform="translate(306 168)">
    <rect x="0" y="0" width="838" height="520" rx="16" fill="#ffffff" stroke="#e5e2dc" filter="url(#soft)"/>
    <!-- chrome bar -->
    <rect x="0" y="0" width="838" height="34" rx="16" fill="#f8f7f4"/>
    <rect x="0" y="22" width="838" height="12" fill="#f8f7f4"/>
    <line x1="0" y1="34" x2="838" y2="34" stroke="#e5e2dc"/>
    <circle cx="18" cy="17" r="4" fill="#e2ddd4"/><circle cx="33" cy="17" r="4" fill="#e2ddd4"/><circle cx="48" cy="17" r="4" fill="#e2ddd4"/>
    <rect x="66" y="8" width="300" height="18" rx="6" fill="#ffffff" stroke="#e5e2dc"/>
    <g transform="translate(72 11)" color="#aaa6ad"><use href="#ic-lock" width="12" height="12"/></g>
    <text class="mono" x="90" y="21" font-size="9.5" fill="#7c7882">localhost:3002/investigations</text>

    <!-- Panel TL: decision receipts -->
    <g transform="translate(16 46)">
      <rect x="0" y="0" width="396" height="212" rx="12" fill="#ffffff" stroke="#e5e2dc"/>
      <text x="14" y="24" font-size="12.5" font-weight="700" fill="#29282e">Decision receipts</text>
      <text x="14" y="39" font-size="9.5" fill="#7c7882">signed index · newest first</text>
      <rect x="300" y="12" width="82" height="18" rx="9" fill="#eeebfc"/>
      <text x="341" y="25" font-size="9" font-weight="700" fill="#5a4fd0" text-anchor="middle">2 receipts</text>

      <line x1="14" y1="50" x2="382" y2="50" stroke="#efece7"/>
      <!-- row 1 -->
      <rect x="14" y="60" width="368" height="40" rx="8" fill="#faecef" stroke="#ecd7da"/>
      <circle cx="30" cy="80" r="4" fill="#a8394a"/>
      <text class="mono" x="44" y="76" font-size="10" font-weight="600" fill="#29282e">dab8881a9a…b5872bcb</text>
      <text x="44" y="90" font-size="9" fill="#7c7882">postgres · commerce.orders · PROD</text>
      <rect x="300" y="70" width="70" height="20" rx="6" fill="#ffffff" stroke="#ecd7da"/>
      <text x="335" y="84" font-size="9" font-weight="700" fill="#a8394a" text-anchor="middle">STALE</text>
      <!-- row 2 -->
      <rect x="14" y="106" width="368" height="40" rx="8" fill="#f8f7f4" stroke="#e5e2dc"/>
      <circle cx="30" cy="126" r="4" fill="#aaa6ad"/>
      <text class="mono" x="44" y="122" font-size="10" font-weight="600" fill="#29282e">e18291381b…cc217baa</text>
      <text x="44" y="136" font-size="9" fill="#7c7882">postgres · commerce.orders · PROD</text>
      <rect x="286" y="116" width="84" height="20" rx="6" fill="#ffffff" stroke="#e5e2dc"/>
      <text x="328" y="130" font-size="9" font-weight="700" fill="#5f5c66" text-anchor="middle">NO FINDINGS</text>

      <rect x="14" y="158" width="368" height="40" rx="8" fill="#f7efdf" stroke="#ebdcc0"/>
      <g transform="translate(26 170)" color="#8a5d1f"><use href="#ic-bolt" width="15" height="15"/></g>
      <text x="50" y="175" font-size="10" font-weight="700" fill="#8a5d1f">SCHEMA_FIELD_TYPE_CHANGED</text>
      <text class="mono" x="50" y="189" font-size="9" fill="#8a5d1f">average_order_value · decimal → double</text>
    </g>

    <!-- Panel TR: DBOM canonical form -->
    <g transform="translate(426 46)">
      <rect x="0" y="0" width="396" height="212" rx="12" fill="#ffffff" stroke="#e5e2dc"/>
      <text x="14" y="24" font-size="12.5" font-weight="700" fill="#29282e">DBOM 0.1 canonical form</text>
      <text x="14" y="39" font-size="9.5" fill="#7c7882">canonicalised · Ed25519 · append-only</text>
      <line x1="14" y1="50" x2="382" y2="50" stroke="#efece7"/>

      <text class="mono" x="14" y="70" font-size="10" fill="#5a4fd0">dbom.version<tspan fill="#7c7882">  = </tspan><tspan fill="#29282e">"0.1"</tspan></text>
      <text class="mono" x="14" y="88" font-size="10" fill="#5a4fd0">influence.dependencies<tspan fill="#7c7882">[1]</tspan></text>
      <text class="mono" x="14" y="106" font-size="10" fill="#216a53">  urn:li:schemaField:(…,PROD)</text>
      <text class="mono" x="14" y="124" font-size="10" fill="#5a4fd0">signature.alg<tspan fill="#7c7882"> = </tspan><tspan fill="#29282e">Ed25519</tspan></text>

      <g transform="translate(14 138)" color="#216a53"><use href="#ic-shield" width="13" height="13"/></g>
      <text x="34" y="149" font-size="10" fill="#4a4752">canonical state readback verified</text>
      <g transform="translate(14 156)" color="#216a53"><use href="#ic-link" width="13" height="13"/></g>
      <text x="34" y="167" font-size="10" fill="#4a4752">every URN resolved before publish</text>
      <g transform="translate(14 174)" color="#216a53"><use href="#ic-list" width="13" height="13"/></g>
      <text x="34" y="185" font-size="10" fill="#4a4752">field-lineage coverage COMPLETE</text>

      <rect x="248" y="176" width="134" height="22" rx="7" fill="#e8f3ee" stroke="#d8e9e1"/>
      <text x="315" y="191" font-size="9.5" font-weight="700" fill="#216a53" text-anchor="middle">raw content withheld</text>
    </g>

    <!-- Panel BL: impact assessment -->
    <g transform="translate(16 272)">
      <rect x="0" y="0" width="396" height="228" rx="12" fill="#ffffff" stroke="#e5e2dc"/>
      <text x="14" y="24" font-size="12.5" font-weight="700" fill="#29282e">Impact assessment</text>
      <text x="14" y="39" font-size="9.5" fill="#7c7882">deterministic · rule pack, not a model</text>
      <line x1="14" y1="50" x2="382" y2="50" stroke="#efece7"/>

      <rect x="14" y="62" width="228" height="20" rx="6" fill="#faecef" stroke="#ecd7da"/>
      <text x="128" y="76" font-size="9" font-weight="700" fill="#a8394a" text-anchor="middle">OBSERVED_MATERIAL_DEPENDENCY_CHANGED</text>
      <rect x="250" y="62" width="80" height="20" rx="6" fill="#f8f7f4" stroke="#e5e2dc"/>
      <text x="290" y="76" font-size="9" font-weight="600" fill="#5f5c66" text-anchor="middle">policy v1</text>

      <text x="14" y="102" font-size="10" fill="#7c7882">dependency timeline</text>
      <line x1="14" y1="116" x2="240" y2="116" stroke="#e5e2dc" stroke-width="2"/>
      <circle cx="24" cy="116" r="5" fill="#5a4fd0"/>
      <circle cx="80" cy="116" r="5" fill="#5a4fd0"/>
      <circle cx="136" cy="116" r="5" fill="#8a5d1f"/>
      <circle cx="192" cy="116" r="5" fill="#a8394a"/>
      <circle cx="232" cy="116" r="5" fill="#d8d4cc"/>

      <rect x="14" y="132" width="112" height="20" rx="6" fill="#f8f7f4" stroke="#e5e2dc"/>
      <text class="mono" x="24" y="146" font-size="9" fill="#4a4752">a3f1c8 → 9c4e02</text>
      <rect x="132" y="132" width="108" height="20" rx="6" fill="#f8f7f4" stroke="#e5e2dc"/>
      <text class="mono" x="142" y="146" font-size="9" fill="#4a4752">campaign · pinned</text>

      <!-- resolved-dependency donut -->
      <g transform="translate(316 148)">
        <circle cx="0" cy="0" r="34" fill="none" stroke="#efece7" stroke-width="9"/>
        <circle cx="0" cy="0" r="34" fill="none" stroke="#216a53" stroke-width="9" stroke-linecap="round"
                stroke-dasharray="214" stroke-dashoffset="0" transform="rotate(-90)"/>
        <text x="0" y="4" font-size="18" font-weight="700" fill="#29282e" text-anchor="middle">1/1</text>
        <text x="0" y="50" font-size="9" fill="#7c7882" text-anchor="middle">dependencies resolved</text>
      </g>

      <text x="14" y="182" font-size="10" fill="#7c7882">unrelated-field control</text>
      <rect x="14" y="192" width="200" height="22" rx="7" fill="#e8f3ee" stroke="#d8e9e1"/>
      <text x="114" y="207" font-size="9.5" font-weight="700" fill="#216a53" text-anchor="middle">UNAFFECTED · proven unused</text>
    </g>

    <!-- Panel BR: recovery and closure -->
    <g transform="translate(426 272)">
      <rect x="0" y="0" width="396" height="228" rx="12" fill="#ffffff" stroke="#e5e2dc"/>
      <text x="14" y="24" font-size="12.5" font-weight="700" fill="#29282e">Recovery &amp; closure</text>
      <text x="14" y="39" font-size="9.5" fill="#7c7882">authorized · sandboxed · append-only</text>
      <line x1="14" y1="50" x2="382" y2="50" stroke="#efece7"/>

      <!-- row 1 -->
      <g transform="translate(14 62)" color="#216a53"><use href="#ic-ban" width="14" height="14"/></g>
      <text x="36" y="73" font-size="10.5" fill="#29282e">Receipt quarantined</text>
      <rect x="300" y="60" width="82" height="19" rx="6" fill="#e8f3ee" stroke="#d8e9e1"/>
      <text x="341" y="73" font-size="9" font-weight="700" fill="#216a53" text-anchor="middle">enforced</text>
      <!-- row 2 -->
      <g transform="translate(14 88)" color="#216a53"><use href="#ic-key" width="14" height="14"/></g>
      <text x="36" y="99" font-size="10.5" fill="#29282e">Replay authorized by fingerprint</text>
      <rect x="300" y="86" width="82" height="19" rx="6" fill="#e8f3ee" stroke="#d8e9e1"/>
      <text x="341" y="99" font-size="9" font-weight="700" fill="#216a53" text-anchor="middle">bound</text>
      <!-- row 3 -->
      <g transform="translate(14 114)" color="#216a53"><use href="#ic-box" width="14" height="14"/></g>
      <text x="36" y="125" font-size="10.5" fill="#29282e">Replayed in digest-pinned OCI</text>
      <rect x="300" y="112" width="82" height="19" rx="6" fill="#e8f3ee" stroke="#d8e9e1"/>
      <text x="341" y="125" font-size="9" font-weight="700" fill="#216a53" text-anchor="middle">no network</text>
      <!-- row 4 -->
      <g transform="translate(14 140)" color="#216a53"><use href="#ic-layers" width="14" height="14"/></g>
      <text x="36" y="151" font-size="10.5" fill="#29282e">Supersession written</text>
      <rect x="286" y="138" width="96" height="19" rx="6" fill="#f8f7f4" stroke="#e5e2dc"/>
      <text x="334" y="151" font-size="9" font-weight="700" fill="#5f5c66" text-anchor="middle">both unchanged</text>

      <line x1="14" y1="170" x2="382" y2="170" stroke="#efece7"/>
      <!-- origin stat -->
      <circle cx="22" cy="188" r="4" fill="#5a4fd0"/>
      <text class="mono" x="34" y="192" font-size="9.5" fill="#5a4fd0">origin = datahub-action</text>
      <text x="200" y="192" font-size="9.5" fill="#7c7882">change caused this quarantine</text>
      <rect x="14" y="202" width="368" height="20" rx="6" fill="#eeebfc" stroke="#e2ddf5"/>
      <text x="198" y="216" font-size="9.5" font-weight="600" fill="#5a4fd0" text-anchor="middle">incident closed after direct DataHub readback</text>
    </g>
  </g>

  <!-- dashed arrows down to bottom callouts -->
  <path d="M480 692 V 706" stroke="#d8d4cc" stroke-width="1.4" stroke-dasharray="3 3" fill="none" marker-end="url(#arrGray)"/>
  <path d="M725 692 V 706" stroke="#d8d4cc" stroke-width="1.4" stroke-dasharray="3 3" fill="none" marker-end="url(#arrGray)"/>
  <path d="M970 692 V 706" stroke="#d8d4cc" stroke-width="1.4" stroke-dasharray="3 3" fill="none" marker-end="url(#arrGray)"/>

  <!-- bottom callouts -->
  <g transform="translate(306 712)">
    <rect x="0" y="0" width="266" height="70" rx="11" fill="#ffffff" stroke="#e5e2dc" filter="url(#softsm)"/>
    <g transform="translate(16 16)" color="#5a4fd0"><use href="#ic-doc" width="15" height="15"/></g>
    <text x="40" y="28" font-size="11.5" font-weight="700" fill="#29282e">Signed baseline</text>
    <text x="16" y="47" font-size="9.5" fill="#5f5c66">A DBOM turns first sight into a signed</text>
    <text x="16" y="60" font-size="9.5" fill="#5f5c66">assertion about what the run depended on.</text>
  </g>
  <g transform="translate(592 712)">
    <rect x="0" y="0" width="266" height="70" rx="11" fill="#ffffff" stroke="#e5e2dc" filter="url(#softsm)"/>
    <g transform="translate(16 16)" color="#216a53"><use href="#ic-link" width="15" height="15"/></g>
    <text x="40" y="28" font-size="11.5" font-weight="700" fill="#29282e">Correlated evidence</text>
    <text x="16" y="47" font-size="9.5" fill="#5f5c66">Findings reach DataHub carrying governed</text>
    <text x="16" y="60" font-size="9.5" fill="#5f5c66">URNs, campaign IDs, and reason codes.</text>
  </g>
  <g transform="translate(878 712)">
    <rect x="0" y="0" width="266" height="70" rx="11" fill="#ffffff" stroke="#e5e2dc" filter="url(#softsm)"/>
    <g transform="translate(16 16)" color="#8a5d1f"><use href="#ic-refresh" width="15" height="15"/></g>
    <text x="40" y="28" font-size="11.5" font-weight="700" fill="#29282e">Closed loop</text>
    <text x="16" y="47" font-size="9.5" fill="#5f5c66">A metadata change quarantines the next</text>
    <text x="16" y="60" font-size="9.5" fill="#5f5c66">decision before anyone reads it again.</text>
  </g>

  <!-- ===================== RIGHT RAIL ===================== -->
  <!-- Right Card A: DataHub estate (green) -->
  <g transform="translate(1180 172)">
    <rect x="0" y="0" width="272" height="152" rx="13" fill="#ffffff" stroke="#d8e9e1" filter="url(#softsm)"/>
    <g transform="translate(16 15)" color="#216a53"><use href="#ic-db" width="17" height="17"/></g>
    <text x="42" y="28" font-size="11.5" font-weight="700" fill="#29282e">DataHub estate</text>
    <text x="42" y="42" font-size="9.5" fill="#7c7882">governed metadata graph</text>
    <g transform="translate(16 56)" color="#216a53"><use href="#ic-doc" width="12" height="12"/></g>
    <text x="36" y="66" font-size="10" fill="#4a4752">receipt Documents + aspects</text>
    <g transform="translate(16 74)" color="#216a53"><use href="#ic-bolt" width="12" height="12"/></g>
    <text x="36" y="84" font-size="10" fill="#4a4752">metadata change events</text>
    <g transform="translate(16 92)" color="#216a53"><use href="#ic-people" width="12" height="12"/></g>
    <text x="36" y="102" font-size="10" fill="#4a4752">native ownership routing</text>
    <g transform="translate(16 110)" color="#216a53"><use href="#ic-scan" width="12" height="12"/></g>
    <text x="36" y="120" font-size="10" fill="#4a4752">direct entity readback</text>
    <g transform="translate(16 128)" color="#216a53"><use href="#ic-shield" width="12" height="12"/></g>
    <text x="36" y="138" font-size="10" fill="#4a4752">incident writeback + closure</text>
  </g>

  <!-- Right Card B: Assessment engine (violet) -->
  <g transform="translate(1180 340)">
    <rect x="0" y="0" width="272" height="152" rx="13" fill="#ffffff" stroke="#e2ddf5" filter="url(#softsm)"/>
    <g transform="translate(16 15)" color="#5a4fd0"><use href="#ic-target" width="17" height="17"/></g>
    <text x="42" y="28" font-size="11.5" font-weight="700" fill="#29282e">Assessment engine</text>
    <text x="42" y="42" font-size="9.5" fill="#7c7882">deterministic, then durable</text>
    <g transform="translate(16 56)" color="#5a4fd0"><use href="#ic-list" width="12" height="12"/></g>
    <text x="36" y="66" font-size="10" fill="#4a4752">content-addressed rule packs</text>
    <g transform="translate(16 74)" color="#5a4fd0"><use href="#ic-flow" width="12" height="12"/></g>
    <text x="36" y="84" font-size="10" fill="#4a4752">campaign per change event</text>
    <g transform="translate(16 92)" color="#5a4fd0"><use href="#ic-clock" width="12" height="12"/></g>
    <text x="36" y="102" font-size="10" fill="#4a4752">leases · expiry · recovery</text>
    <g transform="translate(16 110)" color="#5a4fd0"><use href="#ic-lock" width="12" height="12"/></g>
    <text x="36" y="120" font-size="10" fill="#4a4752">raw-free durable assessments</text>
    <g transform="translate(16 128)" color="#5a4fd0"><use href="#ic-layers" width="12" height="12"/></g>
    <text x="36" y="138" font-size="10" fill="#4a4752">append-only audit trail</text>
  </g>

  <!-- Right Card C: Recovery plane (slate) -->
  <g transform="translate(1180 508)">
    <rect x="0" y="0" width="272" height="180" rx="13" fill="#ffffff" stroke="#e5e2dc" filter="url(#softsm)"/>
    <g transform="translate(16 15)" color="#57545d"><use href="#ic-refresh" width="17" height="17"/></g>
    <text x="42" y="28" font-size="11.5" font-weight="700" fill="#29282e">Recovery plane</text>
    <text x="42" y="42" font-size="9.5" fill="#7c7882">authorized, sandboxed, reversible</text>
    <g transform="translate(16 56)" color="#57545d"><use href="#ic-key" width="12" height="12"/></g>
    <text x="36" y="66" font-size="10" fill="#4a4752">digest-bound expiring approval</text>
    <g transform="translate(16 74)" color="#57545d"><use href="#ic-box" width="12" height="12"/></g>
    <text x="36" y="84" font-size="10" fill="#4a4752">digest-pinned OCI profile</text>
    <g transform="translate(16 92)" color="#57545d"><use href="#ic-ban" width="12" height="12"/></g>
    <text x="36" y="102" font-size="10" fill="#4a4752">network denied · read-only root</text>
    <g transform="translate(16 110)" color="#57545d"><use href="#ic-layers" width="12" height="12"/></g>
    <text x="36" y="120" font-size="10" fill="#4a4752">supersession, never edit</text>
    <g transform="translate(16 128)" color="#57545d"><use href="#ic-shield" width="12" height="12"/></g>
    <text x="36" y="138" font-size="10" fill="#4a4752">verified idempotent closure</text>
    <rect x="16" y="148" width="240" height="20" rx="6" fill="#f8f7f4" stroke="#e5e2dc"/>
    <text class="mono" x="26" y="162" font-size="9" fill="#4a4752">postgres · server-clock leases</text>
  </g>

  <!-- centre → right arrows -->
  <path d="M1150 248 H 1174" stroke="#216a53" stroke-width="1.6" fill="none" marker-end="url(#arrGreen)"/>
  <path d="M1150 416 H 1174" stroke="#5a4fd0" stroke-width="1.6" fill="none" marker-end="url(#arrViolet)"/>
  <path d="M1150 584 H 1174" stroke="#57545d" stroke-width="1.6" fill="none" marker-end="url(#arrInk)"/>

  <!-- far-right outcome chips -->
  <g transform="translate(1470 226)">
    <rect x="0" y="0" width="128" height="44" rx="10" fill="#ffffff" stroke="#e5e2dc" filter="url(#softsm)"/>
    <g transform="translate(12 15)" color="#216a53"><use href="#ic-doc" width="14" height="14"/></g>
    <text x="34" y="20" font-size="10" font-weight="600" fill="#29282e">Receipt</text>
    <text x="34" y="33" font-size="9" fill="#7c7882">in DataHub</text>
  </g>
  <g transform="translate(1470 394)">
    <rect x="0" y="0" width="128" height="44" rx="10" fill="#ffffff" stroke="#e5e2dc" filter="url(#softsm)"/>
    <g transform="translate(12 15)" color="#5a4fd0"><use href="#ic-target" width="14" height="14"/></g>
    <text x="34" y="20" font-size="10" font-weight="600" fill="#29282e">Findings</text>
    <text x="34" y="33" font-size="9" fill="#7c7882">reason-coded</text>
  </g>
  <g transform="translate(1470 562)">
    <rect x="0" y="0" width="128" height="44" rx="10" fill="#ffffff" stroke="#e5e2dc" filter="url(#softsm)"/>
    <g transform="translate(12 15)" color="#57545d"><use href="#ic-layers" width="14" height="14"/></g>
    <text x="34" y="20" font-size="10" font-weight="600" fill="#29282e">Superseded</text>
    <text x="34" y="33" font-size="9" fill="#7c7882">history intact</text>
  </g>

  <!-- ===================== CAPABILITIES STRIP ===================== -->
  <g transform="translate(44 806)">
    <rect x="0" y="0" width="1554" height="96" rx="14" fill="#ffffff" stroke="#e5e2dc" filter="url(#softsm)"/>
    <text x="24" y="34" font-size="12.5" font-weight="700" fill="#29282e">GlassBox capabilities</text>
    <text x="24" y="50" font-size="9.5" fill="#7c7882">Full contract set · DataHub-native</text>
    <line x1="196" y1="20" x2="196" y2="76" stroke="#efece7"/>

    <g font-size="9" fill="#5f5c66" text-anchor="middle">
      <g transform="translate(252 30)" color="#5a4fd0"><use href="#ic-doc" width="17" height="17" x="-8.5"/></g>
      <text x="252" y="64">DBOM signing</text>
      <g transform="translate(370 30)" color="#5a4fd0"><use href="#ic-link" width="17" height="17" x="-8.5"/></g>
      <text x="370" y="64">URN resolution</text>
      <g transform="translate(488 30)" color="#5a4fd0"><use href="#ic-list" width="17" height="17" x="-8.5"/></g>
      <text x="488" y="64">Field lineage</text>
      <g transform="translate(606 30)" color="#5a4fd0"><use href="#ic-target" width="17" height="17" x="-8.5"/></g>
      <text x="606" y="64">Materiality rules</text>
      <g transform="translate(724 30)" color="#5a4fd0"><use href="#ic-flow" width="17" height="17" x="-8.5"/></g>
      <text x="724" y="64">Campaigns</text>
      <g transform="translate(842 30)" color="#5a4fd0"><use href="#ic-clock" width="17" height="17" x="-8.5"/></g>
      <text x="842" y="64">Leases &amp; outbox</text>
      <g transform="translate(960 30)" color="#5a4fd0"><use href="#ic-globe" width="17" height="17" x="-8.5"/></g>
      <text x="960" y="64">Kafka · pgQueue</text>
      <g transform="translate(1078 30)" color="#5a4fd0"><use href="#ic-key" width="17" height="17" x="-8.5"/></g>
      <text x="1078" y="64">Replay bundles</text>
      <g transform="translate(1196 30)" color="#5a4fd0"><use href="#ic-box" width="17" height="17" x="-8.5"/></g>
      <text x="1196" y="64">OCI sandbox</text>
      <g transform="translate(1314 30)" color="#5a4fd0"><use href="#ic-layers" width="17" height="17" x="-8.5"/></g>
      <text x="1314" y="64">Supersession</text>
      <g transform="translate(1432 30)" color="#5a4fd0"><use href="#ic-shield" width="17" height="17" x="-8.5"/></g>
      <text x="1432" y="64">Incident closure</text>
      <g transform="translate(1516 30)" color="#5a4fd0"><use href="#ic-cpu" width="17" height="17" x="-8.5"/></g>
      <text x="1516" y="64">MCP tools</text>
    </g>
  </g>

  <!-- ===================== LEGEND ===================== -->
  <g transform="translate(46 934)" font-size="9.5" fill="#5f5c66">
    <line x1="0" y1="-4" x2="26" y2="-4" stroke="#5a4fd0" stroke-width="1.8" marker-end="url(#arrViolet)"/>
    <text x="34" y="0">Evidence — OTLP spans, signed receipts</text>
    <line x1="264" y1="-4" x2="290" y2="-4" stroke="#216a53" stroke-width="1.8" marker-end="url(#arrGreen)"/>
    <text x="298" y="0">Metadata — DataHub aspects and change events</text>
    <line x1="592" y1="-4" x2="618" y2="-4" stroke="#57545d" stroke-width="1.8" marker-end="url(#arrInk)"/>
    <text x="626" y="0">Control — campaign → quarantine → recovery</text>
  </g>

  <text x="1598" y="934" font-size="9.5" fill="#7c7882" text-anchor="end">GlassBox never returns raw content: only digests, governed URNs, reason codes, and verification results.</text>
  <text x="1598" y="950" font-size="9.5" fill="#7c7882" text-anchor="end">Enforcement is explicit, reversible, and always leaves both receipt Documents unchanged.</text>
</svg>
